<?xml version="1.0" encoding="UTF-8"?>
<svg id="Layer_1" data-name="Layer 1" xmlns="http://www.w3.org/2000/svg" viewBox="0 0 800 800">
  <defs>
    <style>
      .cls-1 {
        fill: none;
        stroke: #fff;
        stroke-linecap: round;
        stroke-linejoin: round;
        stroke-width: 66.67px;
      }

      .cls-2 {
        stroke-width: 0px;
      }
    </style>
  </defs>
  <rect class="cls-2" width="800" height="800"/>
  <g id="File_File_Edit" data-name="File / File_Edit">
    <path id="Vector" class="cls-1" d="m200,366.17v-160c0-37.34,0-56.02,7.27-70.28,6.39-12.54,16.58-22.74,29.13-29.13,14.26-7.27,32.94-7.27,70.28-7.27h149.15c4.09,0,7.66,0,10.84.03m199.97,199.97c.03,3.19.03,6.77.03,10.86v282.6c0,37.26,0,55.9-7.26,70.14-6.39,12.54-16.61,22.75-29.15,29.14-14.25,7.26-32.89,7.26-70.15,7.26h-126.77m233.3-400c-.09-9.52-.45-15.54-1.83-21.29-1.63-6.8-4.34-13.31-7.99-19.27-4.12-6.73-9.86-12.48-21.39-24.01l-104.18-104.18c-11.52-11.52-17.3-17.3-24.02-21.42-5.96-3.66-12.46-6.36-19.27-7.99-5.75-1.38-11.77-1.73-21.29-1.81m199.97,199.97h.04m-.04,0h-93.41c-37.26,0-55.92,0-70.17-7.26-12.54-6.39-22.74-16.61-29.13-29.15-7.27-14.26-7.27-32.92-7.27-70.25v-93.3m-166.67,366.64l66.67,66.67m-233.33,166.67v-83.33l250-250,83.33,83.33-250,250h-83.33Z"/>
  </g>
</svg>