<?xml version="1.0" encoding="UTF-8"?>
<svg id="Layer_1" data-name="Layer 1" xmlns="http://www.w3.org/2000/svg" viewBox="0 0 533.33 939.79">
  <defs>
    <style>
      .cls-1 {
        fill: #ee6159;
      }

      .cls-1, .cls-2, .cls-3, .cls-4 {
        stroke-width: 0px;
      }

      .cls-2 {
        fill: #151515;
      }

      .cls-3, .cls-5 {
        fill: none;
      }

      .cls-4 {
        fill: #fff;
      }

      .cls-5 {
        stroke: #000;
        stroke-linecap: round;
        stroke-linejoin: round;
        stroke-width: 66.67px;
      }
    </style>
  </defs>
  <g id="User_User_01" data-name="User / User_01">
    <path id="Vector" class="cls-5" d="m500,906.46c0-128.87-104.47-233.33-233.33-233.33s-233.33,104.47-233.33,233.33m233.33-333.33c-73.64,0-133.33-59.7-133.33-133.33s59.7-133.33,133.33-133.33,133.33,59.7,133.33,133.33-59.7,133.33-133.33,133.33Z"/>
  </g>
  <g id="_6" data-name=" 6">
    <path id="Path_39" data-name="Path 39" class="cls-1" d="m163.91,246.71l116.36-209.5c8.81-15.93,26.54-24.76,44.56-22.19l17.36,2.46c16.61,2.35,24.55,12.6,33.28,24.19l.04.11,66.74,96.8c5.18,7.53,5.18,17.47,0,25.01l-1.97,2.94-3.03,4.35c-5.15,7.55-14.44,11.13-23.33,8.99l-5.71-1.34,24.47,106.23-268.78-38.03Z"/>
    <path id="Path_40" data-name="Path 40" class="cls-2" d="m430.75,299.22s-.07,0-.1-.01l-268.79-38.03c-7.99-1.12-13.55-8.51-12.43-16.49.25-1.78.83-3.5,1.7-5.07L267.5,30.12c11.81-21.15,35.39-32.88,59.38-29.56l17.36,2.46c22.88,3.24,33.99,18.01,42.91,29.87.32.42.62.86.89,1.32l66.25,96.09c8.56,12.55,8.57,29.05.02,41.6l-5.03,7.34c-5.3,7.67-13.31,13.03-22.41,15.02l19.72,85.58c2.72,7.61-1.25,15.98-8.86,18.69-2.23.79-4.61,1.04-6.95.71l-.02-.03Zm-243.75-64l226.68,32.07-19.7-85.5c-1.82-7.86,3.08-15.7,10.94-17.52,2.18-.5,4.45-.5,6.64.01l5.71,1.34c.27.07.55.12.82.16,2.77.36,5.52-.86,7.1-3.17l4.93-7.19c1.84-2.57,1.87-6.02.07-8.62l-66.7-96.75c-.08-.12-.17-.25-.25-.38-8.04-10.66-12.91-16.32-23.09-17.75l-17.36-2.46c-12.01-1.67-23.82,4.2-29.73,14.79l-106.06,190.95Z"/>
    <g id="Group_18" data-name="Group 18">
      <circle id="Ellipse_4" data-name="Ellipse 4" class="cls-4" cx="439.26" cy="166.47" r="63.82"/>
      <path id="Path_41" data-name="Path 41" class="cls-2" d="m428.26,244.13c-42.92-6.04-72.81-45.74-66.77-88.66,6.04-42.92,45.74-72.81,88.66-66.77,42.92,6.04,72.81,45.74,66.77,88.66-4.7,33.36-30.16,60-63.27,66.2-8.37,1.57-16.95,1.76-25.38.57Zm17.89-126.41c-26.91-3.82-51.83,14.91-55.65,41.82-3.82,26.91,14.91,51.83,41.82,55.65,26.91,3.82,51.83-14.91,55.65-41.82.75-5.29.63-10.68-.35-15.93-3.85-20.77-20.54-36.75-41.46-39.7h-.01Z"/>
    </g>
    <g id="Group_19" data-name="Group 19">
      <line id="Line_12" data-name="Line 12" class="cls-3" x1="336.05" y1="161.39" x2="375.61" y2="171.03"/>
      <path id="Path_42" data-name="Path 42" class="cls-2" d="m373.58,185.5c-.47-.07-.96-.14-1.43-.27l-39.56-9.64c-7.84-1.91-12.65-9.82-10.74-17.66s9.82-12.65,17.66-10.74h0l39.56,9.64c7.84,1.93,12.62,9.85,10.69,17.68-1.79,7.26-8.78,12-16.19,10.98Z"/>
    </g>
    <g id="Group_20" data-name="Group 20">
      <rect id="Rectangle_4" data-name="Rectangle 4" class="cls-4" x="233.94" y="145.84" width="112.9" height="351.56" rx="29.38" ry="29.38" transform="translate(-68.73 564.1) rotate(-81.95)"/>
      <path id="Path_43" data-name="Path 43" class="cls-2" d="m425.4,412.49l-289.91-41.02c-24.04-3.43-40.77-25.67-37.4-49.72l7.58-53.61c3.43-24.04,25.67-40.77,49.72-37.4l289.91,41.02c24.04,3.43,40.77,25.67,37.4,49.72l-7.58,53.61c-3.43,24.04-25.67,40.77-49.72,37.4Zm-274.1-152.81c-8.07-1.13-15.54,4.48-16.69,12.56l-7.58,53.61c-1.13,8.07,4.48,15.54,12.56,16.69l289.91,41.02c8.07,1.13,15.54-4.48,16.69-12.56l7.58-53.61c1.13-8.07-4.48-15.54-12.56-16.69l-289.91-41.02Z"/>
    </g>
  </g>
</svg>